<svg width="24" height="24" viewBox="0 0 24 24" fill="none" xmlns="http://www.w3.org/2000/svg">
<path d="M18.3848 8L18.696 5.97674C18.871 4.8395 19.8495 4 21.0001 4M18.3848 8L17.3915 14.4562C17.1663 15.9197 15.9071 17 14.4264 17H7.40665C6.00056 17 4.78312 16.0234 4.47809 14.6508L3.81143 11.6508C3.39508 9.77725 4.82074 8 6.73999 8H18.3848ZM15.5001 19.75C15.5001 20.1642 15.1644 20.5 14.7501 20.5C14.3359 20.5 14.0001 20.1642 14.0001 19.75C14.0001 19.3358 14.3359 19 14.7501 19C15.1644 19 15.5001 19.3358 15.5001 19.75ZM7.50014 19.75C7.50014 20.1642 7.16435 20.5 6.75014 20.5C6.33593 20.5 6.00014 20.1642 6.00014 19.75C6.00014 19.3358 6.33593 19 6.75014 19C7.16435 19 7.50014 19.3358 7.50014 19.75Z" stroke="#00162A" stroke-width="1.5" stroke-linecap="round" stroke-linejoin="round"/>
</svg>
