<svg width="24" height="24" viewBox="0 0 24 24" fill="none" xmlns="http://www.w3.org/2000/svg">
<path d="M14.9655 3.5C14.0369 3.17607 13.039 3 12 3C7.02944 3 3 7.02944 3 12C3 16.9706 7.02944 21 12 21C16.9706 21 21 16.9706 21 12C21 11.3126 20.9229 10.6432 20.777 10M9.01 10.5H9M15.01 10.5H15M15.1227 15C14.3896 15.9145 13.2632 16.5 12 16.5C10.7368 16.5 9.61038 15.9145 8.87732 15M20 2V4M20 4V6M20 4H18M20 4H22" stroke="#00162A" stroke-width="1.5" stroke-linecap="round" stroke-linejoin="round"/>
</svg>
