<svg width="24" height="24" viewBox="0 0 24 24" fill="none" xmlns="http://www.w3.org/2000/svg">
<path d="M6 17H5C3.89543 17 3 16.1046 3 15V8C3 6.34315 4.34315 5 6 5H13C14.6569 5 16 6.34315 16 8V9M6 17C6 16.1716 6.67157 15.5 7.5 15.5C8.32843 15.5 9 16.1716 9 17M6 17V17.5C6 18.3284 6.67157 19 7.5 19C8.32843 19 9 18.3284 9 17.5V17M14.5 17H9M16 9H17.5935C18.9996 9 20.217 9.9766 20.522 11.3492L20.9286 13.1785C20.976 13.3922 21 13.6104 21 13.8293V15C21 16.1046 20.1046 17 19 17H18M16 9V15M18 17C18 16.1716 17.3284 15.5 16.5 15.5C15.6716 15.5 15 16.1716 15 17V17.5C15 18.3284 15.6716 19 16.5 19C17.3284 19 18 18.3284 18 17.5V17Z" stroke="#00162A" stroke-width="1.5" stroke-linecap="round" stroke-linejoin="round"/>
</svg>
