<svg width="60" height="60" viewBox="0 0 60 60" fill="none" xmlns="http://www.w3.org/2000/svg">
<path d="M25.3743 22.0055L24.9325 22.6115L25.3743 22.0055ZM30 7.76539L29.4925 8.31756C29.7794 8.58133 30.2206 8.58133 30.5075 8.31756L30 7.76539ZM34.6257 22.0055L35.0675 22.6116L34.6257 22.0055ZM30 24.1899L30 24.9399L30 24.1899ZM25.3743 22.0055L25.8161 21.3994C24.0581 20.1178 22.1407 18.5301 20.6702 16.8255C19.1817 15.1001 18.25 13.3683 18.25 11.7869H17.5H16.75C16.75 13.9183 17.9757 15.9984 19.5345 17.8053C21.1113 19.6332 23.1311 21.2983 24.9325 22.6115L25.3743 22.0055ZM17.5 11.7869H18.25C18.25 8.72039 19.8013 6.73781 21.8799 6.0383C23.9851 5.32984 26.8324 5.87251 29.4925 8.31756L30 7.76539L30.5075 7.21321C27.5428 4.48804 24.1401 3.69502 21.4015 4.61664C18.6363 5.54721 16.75 8.1605 16.75 11.7869H17.5ZM34.6257 22.0055L35.0675 22.6116C36.8689 21.2984 38.8887 19.6332 40.4655 17.8054C42.0243 15.9984 43.25 13.9183 43.25 11.7869H42.5H41.75C41.75 13.3683 40.8183 15.1001 39.3298 16.8256C37.8593 18.5301 35.9419 20.1179 34.1839 21.3994L34.6257 22.0055ZM42.5 11.7869H43.25C43.25 8.16048 41.3637 5.5472 38.5985 4.61664C35.8599 3.69502 32.4572 4.48804 29.4925 7.21321L30 7.76539L30.5075 8.31756C33.1676 5.87251 36.0149 5.32984 38.1201 6.03829C40.1987 6.73781 41.75 8.72038 41.75 11.7869H42.5ZM25.3743 22.0055L24.9325 22.6115C26.8863 24.0358 28.0844 24.9399 30 24.9399L30 24.1899L30 23.4399C28.6576 23.4399 27.858 22.8878 25.8161 21.3994L25.3743 22.0055ZM34.6257 22.0055L34.1839 21.3994C32.1421 22.8878 31.3424 23.44 30 23.4399L30 24.1899L30 24.9399C31.9156 24.94 33.1137 24.0358 35.0675 22.6116L34.6257 22.0055Z" fill="#3AA15B"/>
<path opacity="0.5" d="M10 53.471H15.6498C18.177 53.471 20.7313 53.7342 23.1908 54.2409C27.5414 55.1373 32.1221 55.2459 36.5174 54.5344C38.6845 54.1836 40.8151 53.6472 42.7437 52.7163C44.4847 51.876 46.6173 50.6915 48.0498 49.3648C49.4803 48.0399 50.97 45.8717 52.0273 44.1769C52.934 42.7235 52.4955 40.9405 51.0613 39.8576C49.4683 38.6547 47.1043 38.655 45.5116 39.8581L40.9936 43.2711C39.2426 44.5938 37.3299 45.8114 35.0514 46.1748C34.7775 46.2185 34.4904 46.2583 34.1909 46.293M34.1909 46.293C34.1007 46.3034 34.0094 46.3134 33.917 46.3229M34.1909 46.293C34.5554 46.2149 34.9173 45.9901 35.2569 45.6937C36.8649 44.2903 36.9666 41.925 35.5714 40.3578C35.2476 39.9942 34.8689 39.691 34.4477 39.4397C27.4543 35.2686 16.5735 38.4455 10 43.1073M34.1909 46.293C34.0997 46.3125 34.0083 46.3229 33.917 46.3229M33.917 46.3229C32.6086 46.4572 31.0779 46.492 29.3794 46.3316" stroke="#1B263B" stroke-width="1.5" stroke-linecap="round"/>
</svg>
